<svg xmlns="http://www.w3.org/2000/svg" xmlns:xlink="http://www.w3.org/1999/xlink" width="13" height="19" viewBox="0 0 13 19">
<g transform="translate(-1306 -639)">
<path fill="#fff" fill-opacity="0" stroke="#5b93b7" stroke-linecap="round" stroke-miterlimit="50" stroke-width="1.5" d="M1315.365 657.147h-6.427c-.59 0-1.09-.439-1.164-1.024l-1.402-11.026c-.088-.701.458-1.321 1.164-1.321h9.161c.703 0 1.249.615 1.164 1.313l-1.331 11.026a1.173 1.173 0 0 1-1.165 1.032z"/>
<path fill="#fff" fill-opacity="0" stroke="#5b93b7" stroke-linecap="round" stroke-miterlimit="50" stroke-width="1.5" d="M1309.048 646.298l.97 8.705"/>
<path fill="#fff" fill-opacity="0" stroke="#5b93b7" stroke-linecap="round" stroke-miterlimit="50" stroke-width="1.5" d="M1312.114 646.298v8.705"/>
<path fill="#fff" fill-opacity="0" stroke="#5b93b7" stroke-linecap="round" stroke-miterlimit="50" stroke-width="1.5" d="M1315.303 646.298l-1.09 8.705"/>
<path fill="#fff" fill-opacity="0" stroke="#5b93b7" stroke-linecap="round" stroke-miterlimit="50" stroke-width="1.5" d="M1306.596 642.073l10.515-1.19"/>
<path fill="#fff" fill-opacity="0" stroke="#5b93b7" stroke-miterlimit="50" stroke-width="1.5" d="M1309.792 641.716l-.05-.447c-.103-.899.54-1.717 1.426-1.817l.695-.08c.886-.1 1.695.555 1.797 1.453l.05.447"/>
</g>
</svg>